<?xml version="1.0" encoding="UTF-8" standalone="no" ?>
        <svg viewBox="6 7 19 19" xmlns="http://www.w3.org/2000/svg" fill="#0085CA" fill-rule="evenodd">
        	<g id="lightningIcon" stroke="none" stroke-width="1" fill="none" fill-rule="evenodd">
                <path d="M11.791 13.85v9.954H8.477v-9.955h3.314zm.211-3.074A1.59 1.59 0 0 1 11.495 12c-.345.328-.799.492-1.361.492h-.02c-.55 0-.991-.164-1.326-.492a1.646 1.646 0 0 1-.502-1.225c0-.496.172-.906.517-1.23.345-.326.795-.488 1.351-.488.556 0 1.001.162 1.336.487.335.325.506.735.512 1.23zm4.922 4.488c.128-.201.258-.378.392-.53.14-.161.33-.336.567-.523a2.61 2.61 0 0 1 .874-.437 3.982 3.982 0 0 1 1.15-.156c1.145 0 2.066.38 2.763 1.14.696.76 1.044 1.874 1.044 3.34v5.706H20.41V18.48c0-.703-.136-1.254-.407-1.652-.271-.399-.695-.598-1.27-.598-.423 0-.776.115-1.06.346a2.136 2.136 0 0 0-.638.86c-.074.2-.11.471-.11.813v5.555h-3.306c.014-2.672.02-4.839.02-6.5 0-1.66-.003-2.651-.01-2.973l-.01-.482h3.305v1.415z">
                </path>
            </g>
        </svg>